<svg xmlns="http://www.w3.org/2000/svg" viewBox="0 0 77.13 39.68"><defs><style>.cls-1{fill:#4d4d4f;}</style></defs><g id="Capa_2" data-name="Capa 2"><g id="Layer_1" data-name="Layer 1"><path class="cls-1" d="M35,17.17v9.57a4.59,4.59,0,0,0,1.18,3.49,3.91,3.91,0,0,0,2.75,1.11h1.55a1.83,1.83,0,0,0,0-3.66,1.64,1.64,0,0,1-1.09-.27,1.11,1.11,0,0,1-.3-.89V17.16a2,2,0,0,1-.22.27l-.06.05a2.22,2.22,0,0,1-.33.28h0a3.72,3.72,0,0,1-.39.21L38,18a2.8,2.8,0,0,1-.41.13H37.5a2.19,2.19,0,0,1-.93,0h-.08a2.8,2.8,0,0,1-.41-.13L36,18a2.42,2.42,0,0,1-.39-.21h0a2.22,2.22,0,0,1-.33-.28l-.06-.05a1.78,1.78,0,0,1-.22-.26"/><path class="cls-1" d="M39.08,9.38V2.06a2,2,0,0,0,0-.42,1.62,1.62,0,0,0-.1-.34,2,2,0,0,0-3.81,0,1.39,1.39,0,0,0-.1.33,2,2,0,0,0,0,.42V9.38a2.88,2.88,0,0,1,.22-.27l.06,0a3,3,0,0,1,.33-.28h0A2.93,2.93,0,0,1,36,8.57l.08,0a2.77,2.77,0,0,1,.41-.12l.08,0a2.19,2.19,0,0,1,.93,0l.08,0a2.77,2.77,0,0,1,.41.12l.07,0a2.29,2.29,0,0,1,.73.49l.06,0a3,3,0,0,1,.23.27"/><path class="cls-1" d="M37,8.84a2.05,2.05,0,0,0-2,2.05v4.76a2,2,0,0,0,1.25,1.89,2,2,0,0,0,2.84-1.89V10.91a2.06,2.06,0,0,0-2-2.07"/><path class="cls-1" d="M15.91,23.52v.61c0,.16,0,.32,0,.48v.2c0,.1,0,.2,0,.3s0,.25,0,.37v.17c0,.1,0,.21,0,.31s0,.24.07.35l0,.2c0,.08,0,.15,0,.23a3,3,0,0,0,.1.32l.05.19.06.2c0,.11.08.21.13.32l.06.15.07.18.15.27.09.16s.05.1.08.14.15.21.22.31l.09.12.06.09a4.49,4.49,0,0,0,.43.44C19,30.76,21,31.34,23.6,31.34h4a1.83,1.83,0,0,0,0-3.66H23.16A3.48,3.48,0,0,1,20.79,27,2.51,2.51,0,0,1,20,25V23.52a3.33,3.33,0,0,1-.25.28l-.06.06a3.75,3.75,0,0,1-.33.26l0,0a2.47,2.47,0,0,1-.36.19l-.07,0a3.17,3.17,0,0,1-.41.12l-.09,0a2.28,2.28,0,0,1-.45,0,2.32,2.32,0,0,1-.46,0l-.08,0a2.77,2.77,0,0,1-.41-.12l-.07,0a2,2,0,0,1-.36-.19l0,0a1.64,1.64,0,0,1-.33-.26l-.06-.06a2.18,2.18,0,0,1-.25-.28"/><path class="cls-1" d="M20,15.73v-.5a3,3,0,0,1,.6-2,2.75,2.75,0,0,1,2.11-.67H24.4A2.4,2.4,0,0,1,26.89,15v3.15H20.51v3.66H30.9V15.89a7.47,7.47,0,0,0-1.66-5.22,6.35,6.35,0,0,0-4.88-1.81h-1.2c-2.57,0-4.44.57-5.56,1.69s-1.63,2.8-1.69,5.17a1.94,1.94,0,0,1,.23-.26l.05-.06c.11-.09.21-.19.33-.27h0a2.82,2.82,0,0,1,.38-.21l.08,0a2,2,0,0,1,.41-.13h.08a2.5,2.5,0,0,1,.47-.05,3.42,3.42,0,0,1,.46,0l.08,0a2,2,0,0,1,.41.13l.07,0a2.42,2.42,0,0,1,.39.21h0a2.3,2.3,0,0,1,.34.28l.06,0,.24.28"/><path class="cls-1" d="M18.37,15.23a1.9,1.9,0,0,0-.41,0,2.05,2.05,0,0,0-2.05,2v4.82a2,2,0,0,0,4.09,0V17.22a2.07,2.07,0,0,0-1.64-2"/><path class="cls-1" d="M65,15.71v-.48a2.51,2.51,0,0,1,.78-2,3.48,3.48,0,0,1,2.37-.71h1.46a3.5,3.5,0,0,1,2.37.71,2.51,2.51,0,0,1,.78,2v.5a2.09,2.09,0,0,1,.24-.28l0,0a2.75,2.75,0,0,1,.73-.49l.08,0a2,2,0,0,1,.41-.13l.08,0a3.57,3.57,0,0,1,.46,0,2.31,2.31,0,0,1,.46.05h.08a2,2,0,0,1,.42.13l.07,0a2.42,2.42,0,0,1,.39.21h0a2.16,2.16,0,0,1,.33.27l.06,0a3,3,0,0,1,.23.27c-.07-2.32-.7-4-1.89-5.13s-3.2-1.73-5.8-1.73h-.58c-2.6,0-4.55.58-5.8,1.73S61,13.4,60.93,15.72a2.85,2.85,0,0,1,.23-.26l.06-.06a3,3,0,0,1,.33-.27h0a2.42,2.42,0,0,1,.39-.21l.07,0a2,2,0,0,1,.42-.13h.08a2.31,2.31,0,0,1,.46-.05,3.27,3.27,0,0,1,.45,0l.09,0a2.64,2.64,0,0,1,.4.12l.08,0a3.9,3.9,0,0,1,.35.19l0,0a1.64,1.64,0,0,1,.33.26l.07.06a3.33,3.33,0,0,1,.25.28"/><path class="cls-1" d="M72.8,23.51V25a3.32,3.32,0,0,1-.19,1.14A2.24,2.24,0,0,1,72,27a3.2,3.2,0,0,1-2,.7H68.18A3.5,3.5,0,0,1,65.81,27a2,2,0,0,1-.33-.38l0-.05a2.89,2.89,0,0,1-.22-.43,1.42,1.42,0,0,1-.07-.22,2.92,2.92,0,0,1-.07-.29,4.34,4.34,0,0,1,0-.53V23.52a4,4,0,0,1-.27.31h0a2.62,2.62,0,0,1-.77.5l0,0a3.06,3.06,0,0,1-.43.13h-.07a2.32,2.32,0,0,1-.46,0h0a2.32,2.32,0,0,1-.46,0l-.09,0a2.64,2.64,0,0,1-.4-.12l-.1-.05a2.21,2.21,0,0,1-.34-.18l-.08-.06-.27-.22-.09-.09c-.08-.08-.15-.17-.22-.25v.58l0,.72c0,.19,0,.38,0,.57v.1l0,.29.06.32v.07c0,.12,0,.25.07.36a13.63,13.63,0,0,0,.19.7,3,3,0,0,0,.11.32c0,.11.08.22.13.33s.08.18.13.27a3.24,3.24,0,0,0,.17.32l0,.06.1.17a3.55,3.55,0,0,0,.23.31l0,.08.08.1.39.41A6.22,6.22,0,0,0,65.57,31a10.82,10.82,0,0,0,1.21.23,15.22,15.22,0,0,0,1.85.11h.57A15.17,15.17,0,0,0,71,31.23c.43-.06.84-.14,1.22-.23A6.18,6.18,0,0,0,75,29.61c1.26-1.15,1.9-3,1.9-5.53v-.57a3.33,3.33,0,0,1-.25.28l0,0a2.75,2.75,0,0,1-.77.52l0,0a2.13,2.13,0,0,1-.43.13l-.07,0a3.42,3.42,0,0,1-.46,0h0a2.22,2.22,0,0,1-.45,0l-.1,0a2.91,2.91,0,0,1-.39-.12l-.1-.05a1.74,1.74,0,0,1-.33-.18l-.09-.06a1.86,1.86,0,0,1-.27-.22l-.1-.09a2.52,2.52,0,0,1-.21-.25"/><path class="cls-1" d="M65,22.07V17.16a2.05,2.05,0,0,0-4.1.08V22h0a2.05,2.05,0,0,0,4.1.08"/><path class="cls-1" d="M72.8,22a2,2,0,0,0,4.09,0V17.22a2.05,2.05,0,0,0-4.1,0V22Z"/><path class="cls-1" d="M49.33,13.48V6.72a2.87,2.87,0,0,1,1-2.18,3.41,3.41,0,0,1,2.49-.92h4.08a1.81,1.81,0,1,0,0-3.61H53.21a8.48,8.48,0,0,0-5.9,1.88,7.31,7.31,0,0,0-2.07,5.66v6a1.49,1.49,0,0,1,.23-.27s0,0,.05-.05a2.88,2.88,0,0,1,.33-.28h0a2.48,2.48,0,0,1,.39-.21l.08,0a2.8,2.8,0,0,1,.41-.13h.08a2.42,2.42,0,0,1,.47,0,2.3,2.3,0,0,1,.45,0h.08a2.77,2.77,0,0,1,.41.12l.07,0a1.85,1.85,0,0,1,.37.19h0a2.16,2.16,0,0,1,.33.27.17.17,0,0,1,.06.06,1.6,1.6,0,0,1,.25.27"/><path class="cls-1" d="M49,21.62a2.3,2.3,0,0,1-.34.28h0a2,2,0,0,1-.38.2l-.07,0a1.79,1.79,0,0,1-.41.13h-.08a2.31,2.31,0,0,1-.46.05,2.4,2.4,0,0,1-.46-.05l-.08,0a2.77,2.77,0,0,1-.41-.12l-.08,0a2.93,2.93,0,0,1-.39-.21h0a2.16,2.16,0,0,1-.33-.27l-.06-.05a2.88,2.88,0,0,1-.22-.27v2.51a7.27,7.27,0,0,0,2.07,5.65,8.43,8.43,0,0,0,5.9,1.89h3.64a1.81,1.81,0,1,0,0-3.61H52.77a3.44,3.44,0,0,1-2.49-.91,2.9,2.9,0,0,1-1-2.19V21.29a2.26,2.26,0,0,1-.25.29l0,0"/><path class="cls-1" d="M47.29,13a2.05,2.05,0,0,0-2,2v4.76a2,2,0,0,0,4.09.06V14.94a2,2,0,0,0-2-2"/><path class="cls-1" d="M16,3.7A1.85,1.85,0,0,0,16,0H1.83a1.85,1.85,0,0,0,0,3.7h4.5a.7.7,0,0,1,0-.14c0-.07,0-.13,0-.2a2.44,2.44,0,0,1,.1-.24,1.42,1.42,0,0,1,.08-.18,1.64,1.64,0,0,1,.14-.22.91.91,0,0,1,.11-.16A1.62,1.62,0,0,1,7,2.36l.13-.13.21-.17L7.53,2l.25-.13.16-.08c.1,0,.2-.06.3-.09l.15,0a2.42,2.42,0,0,1,.47,0,2.49,2.49,0,0,1,.47,0l.15,0a2.46,2.46,0,0,1,.29.09.8.8,0,0,1,.16.08l.25.13.15.11a1.66,1.66,0,0,1,.21.16,1.85,1.85,0,0,1,.14.14,1.54,1.54,0,0,1,.17.19l.12.16c0,.07.09.14.13.22l.09.18.09.24a1.46,1.46,0,0,1,.05.2s0,.09,0,.14Z"/><path class="cls-1" d="M6.81,10.4V29.29a2,2,0,0,0,4.1,0V10.4a2.85,2.85,0,0,1-.23.26l-.06.05a1.75,1.75,0,0,1-.33.28h0a2.42,2.42,0,0,1-.39.21l-.07,0a2.25,2.25,0,0,1-.42.13l-.08,0a3.42,3.42,0,0,1-.46,0,3.57,3.57,0,0,1-.47,0l-.08,0a2,2,0,0,1-.41-.13l-.08,0L7.43,11h0a2.78,2.78,0,0,1-.33-.27l0-.06a1.86,1.86,0,0,1-.23-.26"/><path class="cls-1" d="M6.81,8.88a2.05,2.05,0,0,0,4.1,0V4.11s0-.08,0-.11A2,2,0,0,0,6.82,4a.81.81,0,0,0,0,.16Z"/><path class="cls-1" d="M6.85,39.41a1.06,1.06,0,0,1-.3-.82v-2.3a1,1,0,0,1,.3-.81,1.2,1.2,0,0,1,.85-.27h.78v.48H7.64a.56.56,0,0,0-.39.14.45.45,0,0,0-.14.34v2.54a.42.42,0,0,0,.14.34.52.52,0,0,0,.39.14h.84v.49H7.7a1.2,1.2,0,0,1-.85-.27"/><path class="cls-1" d="M10.29,37.07A.53.53,0,0,0,9.93,37H9.72a.52.52,0,0,0-.35.11.41.41,0,0,0-.13.31v1.4a.39.39,0,0,0,.13.31.52.52,0,0,0,.35.11h.21a.53.53,0,0,0,.36-.11.39.39,0,0,0,.12-.31v-1.4a.4.4,0,0,0-.12-.31m.4,2.37a1.2,1.2,0,0,1-.82.24H9.79A1.18,1.18,0,0,1,9,39.44a1,1,0,0,1-.27-.78V37.51A1,1,0,0,1,9,36.73a1.13,1.13,0,0,1,.82-.25h.08a1.15,1.15,0,0,1,.82.25,1,1,0,0,1,.27.78v1.15a1,1,0,0,1-.27.78"/><path class="cls-1" d="M11.75,36.48h.52v.18a.76.76,0,0,1,.51-.18h.46V37h-.53a.35.35,0,0,0-.31.15.43.43,0,0,0-.1.27v2.27h-.55Z"/><path class="cls-1" d="M13.72,36.48h.51v.18a.76.76,0,0,1,.51-.18h.47V37h-.53a.35.35,0,0,0-.31.15.43.43,0,0,0-.1.27v2.27h-.55Z"/><path class="cls-1" d="M15.69,36.48h.54v3.2h-.54Zm0-1.27h.61v.57h-.61Z"/><path class="cls-1" d="M18.62,37.83v-.48a.39.39,0,0,0-.11-.28.41.41,0,0,0-.28-.11H18a.37.37,0,0,0-.42.42v.45Zm-1.33,1.61a1,1,0,0,1-.26-.78V37.51a1.08,1.08,0,0,1,.24-.79,1.07,1.07,0,0,1,.78-.24h.18a.87.87,0,0,1,.68.26,1,1,0,0,1,.24.73v.83H17.57v.48a.36.36,0,0,0,.13.31.52.52,0,0,0,.35.11h.89v.48h-.82a1.21,1.21,0,0,1-.83-.24"/><path class="cls-1" d="M19.91,36.48h.51v.16a.78.78,0,0,1,.51-.16h.17a.89.89,0,0,1,1,1v2.17h-.54v-2.3a.38.38,0,0,0-.42-.42h-.29a.42.42,0,0,0-.31.11.37.37,0,0,0-.11.24v2.37h-.54Z"/><path class="cls-1" d="M23.16,39.47a.84.84,0,0,1-.18-.56V37h-.41v-.48H23v-.76h.55v.76h.74V37h-.74v2a.23.23,0,0,0,.07.2.32.32,0,0,0,.22.06h.45v.48h-.61a.6.6,0,0,1-.5-.21"/><path class="cls-1" d="M26.3,37.83v-.48a.39.39,0,0,0-.11-.28.37.37,0,0,0-.27-.11h-.25a.41.41,0,0,0-.32.11.46.46,0,0,0-.09.31v.45ZM25,39.44a1,1,0,0,1-.26-.78V37.51a.87.87,0,0,1,1-1h.17a.9.9,0,0,1,.69.26,1,1,0,0,1,.23.73v.83H25.26v.48a.39.39,0,0,0,.12.31.53.53,0,0,0,.36.11h.89v.48H25.8a1.18,1.18,0,0,1-.82-.24"/><path class="cls-1" d="M29,39.48a1.14,1.14,0,0,1-.72.2H27.5V39.2h.89a.47.47,0,0,0,.26-.07.28.28,0,0,0,.09-.22v-.34c0-.19-.09-.28-.27-.28h-.11a1,1,0,0,1-.67-.2.78.78,0,0,1-.22-.62v-.18a.74.74,0,0,1,.24-.62,1.19,1.19,0,0,1,.72-.19h.72V37h-.79a.39.39,0,0,0-.25.08.24.24,0,0,0-.1.21v.23a.27.27,0,0,0,.09.22.38.38,0,0,0,.22.07h.09a1,1,0,0,1,.65.2.81.81,0,0,1,.22.62v.29a.73.73,0,0,1-.24.6"/><polygon class="cls-1" points="32.61 35.69 32.61 39.68 32.05 39.68 32.05 35.69 31.07 35.69 31.07 35.21 33.59 35.21 33.59 35.69 32.61 35.69"/><path class="cls-1" d="M35,37.83v-.48A.38.38,0,0,0,34.6,37h-.24a.41.41,0,0,0-.32.11.46.46,0,0,0-.09.31v.45Zm-1.33,1.61a1,1,0,0,1-.26-.78V37.51a1.08,1.08,0,0,1,.24-.79,1.07,1.07,0,0,1,.78-.24h.18a.87.87,0,0,1,.68.26,1,1,0,0,1,.24.73v.83H34v.48a.39.39,0,0,0,.12.31.52.52,0,0,0,.35.11h.89v.48h-.82a1.21,1.21,0,0,1-.83-.24"/><path class="cls-1" d="M36.29,39.52a.62.62,0,0,1-.17-.48V35.21h.55V39a.16.16,0,0,0,0,.14.25.25,0,0,0,.17.05H37v.48h-.35a.49.49,0,0,1-.38-.16"/><path class="cls-1" d="M39.11,37.83v-.48a.36.36,0,0,0-.11-.28.37.37,0,0,0-.27-.11h-.24a.44.44,0,0,0-.33.11.46.46,0,0,0-.09.31v.45Zm-1.32,1.61a1,1,0,0,1-.26-.78V37.51a1.08,1.08,0,0,1,.24-.79,1,1,0,0,1,.78-.24h.17a.89.89,0,0,1,.69.26,1,1,0,0,1,.23.73v.83H38.07v.48a.39.39,0,0,0,.12.31.53.53,0,0,0,.36.11h.89v.48h-.83a1.2,1.2,0,0,1-.82-.24"/><path class="cls-1" d="M40.61,39.44a1,1,0,0,1-.26-.78V37.51a1,1,0,0,1,.26-.78,1.15,1.15,0,0,1,.82-.25h.7V37h-.76a.53.53,0,0,0-.36.11.4.4,0,0,0-.12.31v1.4a.39.39,0,0,0,.12.31.53.53,0,0,0,.36.11h.76v.48h-.7a1.18,1.18,0,0,1-.82-.24"/><path class="cls-1" d="M44.26,37.07A.53.53,0,0,0,43.9,37h-.21a.55.55,0,0,0-.36.11.4.4,0,0,0-.12.31v1.4a.39.39,0,0,0,.12.31.55.55,0,0,0,.36.11h.21a.53.53,0,0,0,.36-.11.39.39,0,0,0,.12-.31v-1.4a.4.4,0,0,0-.12-.31m.4,2.37a1.2,1.2,0,0,1-.82.24h-.08a1.18,1.18,0,0,1-.82-.24,1,1,0,0,1-.27-.78V37.51a1,1,0,0,1,.27-.78,1.13,1.13,0,0,1,.82-.25h.08a1.15,1.15,0,0,1,.82.25,1,1,0,0,1,.27.78v1.15a1,1,0,0,1-.27.78"/><path class="cls-1" d="M45.72,36.48h.52v.16a.76.76,0,0,1,.51-.16h0a1,1,0,0,1,.84.3.77.77,0,0,1,.65-.3h0a.89.89,0,0,1,1,1v2.17h-.54v-2.3a.38.38,0,0,0-.42-.42h-.16a.38.38,0,0,0-.3.12.51.51,0,0,0-.11.25v2.35h-.54v-2.3a.45.45,0,0,0-.11-.31.41.41,0,0,0-.3-.11h-.17a.43.43,0,0,0-.31.11.3.3,0,0,0-.1.23v2.38h-.55Z"/><path class="cls-1" d="M51.75,39.53a.85.85,0,0,1-.51.15h-.09a1.09,1.09,0,0,1-.77-.24,1.11,1.11,0,0,1-.25-.78V36.48h.54v2.3a.41.41,0,0,0,.12.31.41.41,0,0,0,.3.11h.22a.45.45,0,0,0,.3-.1.38.38,0,0,0,.11-.23V36.48h.54v3.2h-.51Z"/><path class="cls-1" d="M53.13,36.48h.51v.16a.76.76,0,0,1,.51-.16h.17a1,1,0,0,1,.76.25,1,1,0,0,1,.26.78v2.17h-.55v-2.3a.38.38,0,0,0-.41-.42h-.29a.43.43,0,0,0-.32.11.36.36,0,0,0-.1.24v2.37h-.54Z"/><path class="cls-1" d="M56.17,36.48h.54v3.2h-.54Zm0-1.27h.6v.57h-.6Z"/><path class="cls-1" d="M57.77,39.44a1,1,0,0,1-.26-.78V37.51a1,1,0,0,1,.26-.78,1.15,1.15,0,0,1,.82-.25h.7V37h-.76a.53.53,0,0,0-.36.11.4.4,0,0,0-.12.31v1.4a.39.39,0,0,0,.12.31.53.53,0,0,0,.36.11h.76v.48h-.7a1.2,1.2,0,0,1-.82-.24"/><path class="cls-1" d="M61.28,39.11a.41.41,0,0,0,0-.23v-.7h-.67a.33.33,0,0,0-.27.11.37.37,0,0,0-.11.27v.32a.28.28,0,0,0,.32.32H61q.2,0,.24-.09m.38.52a.75.75,0,0,1-.17-.14.46.46,0,0,1-.38.19h-.45a1,1,0,0,1-.7-.2.84.84,0,0,1-.22-.67v-.12q0-1,.93-1h.66v-.32a.4.4,0,0,0-.12-.31.52.52,0,0,0-.35-.11H60v-.48h.8a1.13,1.13,0,0,1,.82.25,1,1,0,0,1,.27.78V39a.15.15,0,0,0,.07.14.49.49,0,0,0,.25,0v.45h-.35a.49.49,0,0,1-.19,0"/><path class="cls-1" d="M63,39.44a1,1,0,0,1-.26-.78V37.51a1,1,0,0,1,.27-.78,1.13,1.13,0,0,1,.82-.25h.69V37h-.76a.55.55,0,0,0-.36.11.4.4,0,0,0-.12.31v1.4a.39.39,0,0,0,.12.31.55.55,0,0,0,.36.11h.76v.48h-.69a1.21,1.21,0,0,1-.83-.24"/><path class="cls-1" d="M65.19,36.48h.55v3.2h-.55Zm0-1.27h.61v.57h-.61Z"/><path class="cls-1" d="M68.13,37.07a.57.57,0,0,0-.36-.11h-.21a.53.53,0,0,0-.36.11.4.4,0,0,0-.12.31v1.4a.39.39,0,0,0,.12.31.53.53,0,0,0,.36.11h.21a.57.57,0,0,0,.36-.11.39.39,0,0,0,.12-.31v-1.4a.4.4,0,0,0-.12-.31m.39,2.37a1.18,1.18,0,0,1-.82.24h-.08a1.2,1.2,0,0,1-.82-.24,1,1,0,0,1-.27-.78V37.51a1,1,0,0,1,.27-.78,1.15,1.15,0,0,1,.82-.25h.08a1.13,1.13,0,0,1,.82.25,1,1,0,0,1,.27.78v1.15a1,1,0,0,1-.27.78"/><path class="cls-1" d="M69.59,36.48h.51v.16a.76.76,0,0,1,.51-.16h.17a1.05,1.05,0,0,1,.77.25,1.07,1.07,0,0,1,.25.78v2.17h-.54v-2.3a.41.41,0,0,0-.12-.31.41.41,0,0,0-.3-.11h-.29a.44.44,0,0,0-.32.11.36.36,0,0,0-.1.24v2.37h-.54Z"/><path class="cls-1" d="M74.15,37.83v-.48a.39.39,0,0,0-.11-.28.37.37,0,0,0-.27-.11h-.25a.41.41,0,0,0-.32.11.46.46,0,0,0-.09.31v.45Zm-1.32,1.61a1,1,0,0,1-.27-.78V37.51a.88.88,0,0,1,1-1h.17a.9.9,0,0,1,.69.26,1,1,0,0,1,.23.73v.83H73.11v.48a.39.39,0,0,0,.12.31.53.53,0,0,0,.36.11h.88v.48h-.82a1.18,1.18,0,0,1-.82-.24"/><path class="cls-1" d="M76.89,39.48a1.16,1.16,0,0,1-.72.2h-.82V39.2h.89a.47.47,0,0,0,.26-.07.28.28,0,0,0,.09-.22v-.34a.24.24,0,0,0-.28-.28h-.1a1,1,0,0,1-.67-.2.78.78,0,0,1-.22-.62v-.18a.74.74,0,0,1,.24-.62,1.19,1.19,0,0,1,.72-.19H77V37h-.79A.39.39,0,0,0,76,37a.24.24,0,0,0-.1.21v.23a.27.27,0,0,0,.09.22.36.36,0,0,0,.22.07h.09a1,1,0,0,1,.65.2.81.81,0,0,1,.22.62v.29a.73.73,0,0,1-.24.6"/></g></g></svg>